<svg width="14" height="17" viewBox="0 0 14 17" fill="none" xmlns="http://www.w3.org/2000/svg">
<path d="M3.92152 10.0352C2.87448 10.0352 1.87477 10.4648 1.14109 11.2223C0.408108 11.9791 0 13.001 0 14.0622V15.6514C0 16.1201 0.377438 16.5 0.843031 16.5H13.157C13.6226 16.5 14 16.1201 14 15.6514V14.0622C14 13.001 13.5919 11.9791 12.8589 11.2223C12.1252 10.4648 11.1255 10.0352 10.0785 10.0352H3.92152Z" fill="#ACACAC"/>
<path d="M7 0.5C4.70342 0.5 2.84168 2.37411 2.84168 4.68594C2.84168 6.99776 4.70342 8.87187 7 8.87187C9.29658 8.87187 11.1583 6.99776 11.1583 4.68594C11.1583 2.37411 9.29658 0.5 7 0.5Z" fill="#ACACAC"/>
</svg>
