<svg width="17" height="16" viewBox="0 0 17 16" fill="none" xmlns="http://www.w3.org/2000/svg">
<path d="M0 8.56303C0 8.18787 0 7.81271 0 7.43827C0.0228233 7.25853 0.043507 7.0788 0.0698965 6.89978C0.295277 5.35493 0.902948 3.97911 1.92501 2.79729C3.1703 1.35728 4.73014 0.457893 6.60807 0.123389C6.88338 0.0741758 7.16082 0.0406541 7.43756 0C7.81271 0 8.18787 0 8.56303 0C8.60297 0.00998521 8.6422 0.0256763 8.68285 0.0285292C9.88322 0.125528 10.9987 0.488562 12.0407 1.09053C14.8844 2.73238 16.4606 6.08456 15.8986 9.31406C15.5869 11.1057 14.7781 12.6384 13.4358 13.8659C11.5793 15.5634 9.38111 16.2402 6.89051 15.925C5.56176 15.7567 4.3507 15.2588 3.27586 14.4564C1.57695 13.1876 0.517805 11.5129 0.126955 9.42461C0.0734626 9.13932 0.0420805 8.85046 0 8.56303ZM3.21381 5.80212C3.21381 5.89698 3.21381 5.95832 3.21381 6.01966C3.21381 7.4832 3.21381 8.94604 3.21381 10.4096C3.21381 10.978 3.55402 11.3282 4.12389 11.3289C6.70721 11.3318 9.28981 11.3318 11.8731 11.3289C12.4444 11.3289 12.7854 10.9795 12.7861 10.4117C12.7875 8.94318 12.7861 7.47464 12.7861 6.0061C12.7861 5.94762 12.7811 5.88842 12.7775 5.81425C12.7062 5.85633 12.657 5.88343 12.6092 5.91338C11.1884 6.79922 9.76625 7.68362 8.34764 8.57373C8.10728 8.72422 7.89331 8.72565 7.65295 8.57373C6.69437 7.9682 5.73008 7.37194 4.76794 6.77211C4.26083 6.45615 3.75444 6.13948 3.21381 5.80283V5.80212ZM3.30225 5.74435H12.6898C12.6163 5.69514 12.5714 5.66233 12.5243 5.63309C11.0593 4.72015 9.59365 3.80864 8.13153 2.89143C8.03239 2.82938 7.96749 2.83081 7.87049 2.89143C6.67297 3.64318 5.47261 4.38993 4.27296 5.1381C3.96128 5.33282 3.64959 5.52753 3.30225 5.74435Z" fill="#ACACAC"/>
</svg>
